ISO-10303-21;
HEADER;
/* Generated by software containing ST-Developer
 * from STEP Tools, Inc. (www.steptools.com) 
 */
/* OPTION: using custom renumber hook */

FILE_DESCRIPTION(
/* description */ ('STEP AP242 Edition 2',
'CAx-IF Rec.Pracs.---Representation and Presentation of Product Manufa
cturing Information (PMI)---4.0---2014-10-13',
'CAx-IF Rec.Pracs.---3D Tessellated Geometry---0.4---2014-09-14','2;1',
'CAx-IF Rec.Pracs.---User Defined Attributes---1.5---2016-08-15'),
/* implementation_level */ '2;1');

FILE_NAME(
/* name */ 'keyborad',
/* time_stamp */ '2026-06-04T08:40:24Z',
/* author */ (''),
/* organization */ (''),
/* preprocessor_version */ 'ST-DEVELOPER v20',
/* originating_system */ 'ONSHAPE BY PTC INC, 1.215',
/* authorisation */ '  ');

FILE_SCHEMA (('AP242_MANAGED_MODEL_BASED_3D_ENGINEERING_MIM_LF { 1 0 10303 442 3 1 4 }'));
ENDSEC;

DATA;
#10=ELLIPSE('',#439,0.00130490829909694,0.00130471970516383);
#11=ELLIPSE('',#446,0.0013171102036285,0.00131691984619586);
#12=ELLIPSE('',#449,0.00127627203647712,0.00127608758124509);
#13=ELLIPSE('',#455,0.00130957820802585,0.00130938893916677);
#14=CYLINDRICAL_SURFACE('',#437,0.00130471970516383);
#15=CYLINDRICAL_SURFACE('',#444,0.00131691984619586);
#16=CYLINDRICAL_SURFACE('',#447,0.00127608758124509);
#17=CYLINDRICAL_SURFACE('',#456,0.00130938893916677);
#18=CIRCLE('',#435,0.00127608758124509);
#19=CIRCLE('',#436,0.00131691984619586);
#20=CIRCLE('',#438,0.00130471970516383);
#21=CIRCLE('',#445,0.00131691984619586);
#22=CIRCLE('',#448,0.00127608758124509);
#23=CIRCLE('',#457,0.00130938893916677);
#24=SHAPE_REPRESENTATION_RELATIONSHIP('','',#424,#26);
#25=SHAPE_REPRESENTATION_RELATIONSHIP('','',#425,#27);
#26=ADVANCED_BREP_SHAPE_REPRESENTATION('',(#420),#678);
#27=ADVANCED_BREP_SHAPE_REPRESENTATION('',(#421),#679);
#28=ORIENTED_EDGE('',*,*,#130,.F.);
#29=ORIENTED_EDGE('',*,*,#131,.T.);
#30=ORIENTED_EDGE('',*,*,#132,.T.);
#31=ORIENTED_EDGE('',*,*,#133,.T.);
#32=ORIENTED_EDGE('',*,*,#132,.F.);
#33=ORIENTED_EDGE('',*,*,#134,.T.);
#34=ORIENTED_EDGE('',*,*,#135,.T.);
#35=ORIENTED_EDGE('',*,*,#136,.T.);
#36=ORIENTED_EDGE('',*,*,#135,.F.);
#37=ORIENTED_EDGE('',*,*,#137,.T.);
#38=ORIENTED_EDGE('',*,*,#138,.T.);
#39=ORIENTED_EDGE('',*,*,#139,.T.);
#40=ORIENTED_EDGE('',*,*,#138,.F.);
#41=ORIENTED_EDGE('',*,*,#140,.T.);
#42=ORIENTED_EDGE('',*,*,#130,.T.);
#43=ORIENTED_EDGE('',*,*,#141,.T.);
#44=ORIENTED_EDGE('',*,*,#133,.F.);
#45=ORIENTED_EDGE('',*,*,#136,.F.);
#46=ORIENTED_EDGE('',*,*,#139,.F.);
#47=ORIENTED_EDGE('',*,*,#141,.F.);
#48=ORIENTED_EDGE('',*,*,#140,.F.);
#49=ORIENTED_EDGE('',*,*,#137,.F.);
#50=ORIENTED_EDGE('',*,*,#134,.F.);
#51=ORIENTED_EDGE('',*,*,#131,.F.);
#52=ORIENTED_EDGE('',*,*,#142,.T.);
#53=ORIENTED_EDGE('',*,*,#143,.T.);
#54=ORIENTED_EDGE('',*,*,#144,.T.);
#55=ORIENTED_EDGE('',*,*,#145,.T.);
#56=ORIENTED_EDGE('',*,*,#146,.T.);
#57=ORIENTED_EDGE('',*,*,#147,.T.);
#58=ORIENTED_EDGE('',*,*,#148,.T.);
#59=ORIENTED_EDGE('',*,*,#149,.T.);
#60=ORIENTED_EDGE('',*,*,#150,.F.);
#61=ORIENTED_EDGE('',*,*,#151,.T.);
#62=ORIENTED_EDGE('',*,*,#152,.F.);
#63=ORIENTED_EDGE('',*,*,#153,.T.);
#64=ORIENTED_EDGE('',*,*,#154,.F.);
#65=ORIENTED_EDGE('',*,*,#155,.F.);
#66=ORIENTED_EDGE('',*,*,#156,.F.);
#67=ORIENTED_EDGE('',*,*,#157,.T.);
#68=ORIENTED_EDGE('',*,*,#145,.F.);
#69=ORIENTED_EDGE('',*,*,#158,.F.);
#70=ORIENTED_EDGE('',*,*,#153,.F.);
#71=ORIENTED_EDGE('',*,*,#159,.F.);
#72=ORIENTED_EDGE('',*,*,#160,.T.);
#73=ORIENTED_EDGE('',*,*,#146,.F.);
#74=ORIENTED_EDGE('',*,*,#157,.F.);
#75=ORIENTED_EDGE('',*,*,#161,.F.);
#76=ORIENTED_EDGE('',*,*,#155,.T.);
#77=ORIENTED_EDGE('',*,*,#162,.F.);
#78=ORIENTED_EDGE('',*,*,#147,.F.);
#79=ORIENTED_EDGE('',*,*,#160,.F.);
#80=ORIENTED_EDGE('',*,*,#163,.F.);
#81=ORIENTED_EDGE('',*,*,#164,.T.);
#82=ORIENTED_EDGE('',*,*,#149,.F.);
#83=ORIENTED_EDGE('',*,*,#165,.F.);
#84=ORIENTED_EDGE('',*,*,#166,.T.);
#85=ORIENTED_EDGE('',*,*,#143,.F.);
#86=ORIENTED_EDGE('',*,*,#167,.F.);
#87=ORIENTED_EDGE('',*,*,#168,.T.);
#88=ORIENTED_EDGE('',*,*,#169,.T.);
#89=ORIENTED_EDGE('',*,*,#170,.T.);
#90=ORIENTED_EDGE('',*,*,#169,.F.);
#91=ORIENTED_EDGE('',*,*,#171,.T.);
#92=ORIENTED_EDGE('',*,*,#172,.T.);
#93=ORIENTED_EDGE('',*,*,#173,.T.);
#94=ORIENTED_EDGE('',*,*,#172,.F.);
#95=ORIENTED_EDGE('',*,*,#174,.T.);
#96=ORIENTED_EDGE('',*,*,#175,.T.);
#97=ORIENTED_EDGE('',*,*,#176,.T.);
#98=ORIENTED_EDGE('',*,*,#175,.F.);
#99=ORIENTED_EDGE('',*,*,#177,.T.);
#100=ORIENTED_EDGE('',*,*,#167,.T.);
#101=ORIENTED_EDGE('',*,*,#178,.T.);
#102=ORIENTED_EDGE('',*,*,#170,.F.);
#103=ORIENTED_EDGE('',*,*,#173,.F.);
#104=ORIENTED_EDGE('',*,*,#176,.F.);
#105=ORIENTED_EDGE('',*,*,#178,.F.);
#106=ORIENTED_EDGE('',*,*,#166,.F.);
#107=ORIENTED_EDGE('',*,*,#142,.F.);
#108=ORIENTED_EDGE('',*,*,#164,.F.);
#109=ORIENTED_EDGE('',*,*,#148,.F.);
#110=ORIENTED_EDGE('',*,*,#162,.T.);
#111=ORIENTED_EDGE('',*,*,#154,.T.);
#112=ORIENTED_EDGE('',*,*,#158,.T.);
#113=ORIENTED_EDGE('',*,*,#144,.F.);
#114=ORIENTED_EDGE('',*,*,#151,.F.);
#115=ORIENTED_EDGE('',*,*,#179,.F.);
#116=ORIENTED_EDGE('',*,*,#180,.F.);
#117=ORIENTED_EDGE('',*,*,#179,.T.);
#118=ORIENTED_EDGE('',*,*,#161,.T.);
#119=ORIENTED_EDGE('',*,*,#159,.T.);
#120=ORIENTED_EDGE('',*,*,#156,.T.);
#121=ORIENTED_EDGE('',*,*,#152,.T.);
#122=ORIENTED_EDGE('',*,*,#163,.T.);
#123=ORIENTED_EDGE('',*,*,#165,.T.);
#124=ORIENTED_EDGE('',*,*,#150,.T.);
#125=ORIENTED_EDGE('',*,*,#180,.T.);
#126=ORIENTED_EDGE('',*,*,#174,.F.);
#127=ORIENTED_EDGE('',*,*,#171,.F.);
#128=ORIENTED_EDGE('',*,*,#168,.F.);
#129=ORIENTED_EDGE('',*,*,#177,.F.);
#130=EDGE_CURVE('',#181,#182,#217,.T.);
#131=EDGE_CURVE('',#181,#183,#218,.T.);
#132=EDGE_CURVE('',#183,#184,#219,.T.);
#133=EDGE_CURVE('',#184,#182,#220,.T.);
#134=EDGE_CURVE('',#183,#185,#221,.T.);
#135=EDGE_CURVE('',#185,#186,#222,.T.);
#136=EDGE_CURVE('',#186,#184,#223,.T.);
#137=EDGE_CURVE('',#185,#187,#224,.T.);
#138=EDGE_CURVE('',#187,#188,#225,.T.);
#139=EDGE_CURVE('',#188,#186,#226,.T.);
#140=EDGE_CURVE('',#187,#181,#227,.T.);
#141=EDGE_CURVE('',#182,#188,#228,.T.);
#142=EDGE_CURVE('',#189,#190,#229,.T.);
#143=EDGE_CURVE('',#190,#191,#18,.T.);
#144=EDGE_CURVE('',#191,#192,#230,.T.);
#145=EDGE_CURVE('',#192,#193,#231,.T.);
#146=EDGE_CURVE('',#193,#194,#232,.T.);
#147=EDGE_CURVE('',#194,#195,#233,.T.);
#148=EDGE_CURVE('',#195,#196,#234,.T.);
#149=EDGE_CURVE('',#196,#189,#19,.T.);
#150=EDGE_CURVE('',#197,#197,#20,.T.);
#151=EDGE_CURVE('',#198,#198,#10,.F.);
#152=EDGE_CURVE('',#199,#200,#235,.T.);
#153=EDGE_CURVE('',#199,#201,#236,.T.);
#154=EDGE_CURVE('',#202,#201,#237,.T.);
#155=EDGE_CURVE('',#200,#202,#238,.T.);
#156=EDGE_CURVE('',#203,#199,#239,.T.);
#157=EDGE_CURVE('',#203,#193,#240,.T.);
#158=EDGE_CURVE('',#201,#192,#241,.T.);
#159=EDGE_CURVE('',#204,#203,#242,.T.);
#160=EDGE_CURVE('',#204,#194,#243,.T.);
#161=EDGE_CURVE('',#200,#204,#244,.T.);
#162=EDGE_CURVE('',#195,#202,#245,.T.);
#163=EDGE_CURVE('',#205,#205,#21,.T.);
#164=EDGE_CURVE('',#196,#189,#11,.F.);
#165=EDGE_CURVE('',#206,#206,#22,.T.);
#166=EDGE_CURVE('',#190,#191,#12,.F.);
#167=EDGE_CURVE('',#207,#208,#246,.T.);
#168=EDGE_CURVE('',#207,#209,#247,.T.);
#169=EDGE_CURVE('',#209,#210,#248,.T.);
#170=EDGE_CURVE('',#210,#208,#249,.T.);
#171=EDGE_CURVE('',#209,#211,#250,.T.);
#172=EDGE_CURVE('',#211,#212,#251,.T.);
#173=EDGE_CURVE('',#212,#210,#252,.T.);
#174=EDGE_CURVE('',#211,#213,#253,.T.);
#175=EDGE_CURVE('',#213,#214,#254,.T.);
#176=EDGE_CURVE('',#214,#212,#255,.T.);
#177=EDGE_CURVE('',#213,#207,#256,.T.);
#178=EDGE_CURVE('',#208,#214,#257,.T.);
#179=EDGE_CURVE('',#215,#215,#13,.F.);
#180=EDGE_CURVE('',#216,#216,#23,.T.);
#181=VERTEX_POINT('',#569);
#182=VERTEX_POINT('',#570);
#183=VERTEX_POINT('',#572);
#184=VERTEX_POINT('',#574);
#185=VERTEX_POINT('',#578);
#186=VERTEX_POINT('',#580);
#187=VERTEX_POINT('',#584);
#188=VERTEX_POINT('',#586);
#189=VERTEX_POINT('',#596);
#190=VERTEX_POINT('',#597);
#191=VERTEX_POINT('',#599);
#192=VERTEX_POINT('',#601);
#193=VERTEX_POINT('',#603);
#194=VERTEX_POINT('',#605);
#195=VERTEX_POINT('',#607);
#196=VERTEX_POINT('',#609);
#197=VERTEX_POINT('',#613);
#198=VERTEX_POINT('',#615);
#199=VERTEX_POINT('',#618);
#200=VERTEX_POINT('',#619);
#201=VERTEX_POINT('',#621);
#202=VERTEX_POINT('',#623);
#203=VERTEX_POINT('',#627);
#204=VERTEX_POINT('',#632);
#205=VERTEX_POINT('',#639);
#206=VERTEX_POINT('',#643);
#207=VERTEX_POINT('',#647);
#208=VERTEX_POINT('',#648);
#209=VERTEX_POINT('',#650);
#210=VERTEX_POINT('',#652);
#211=VERTEX_POINT('',#656);
#212=VERTEX_POINT('',#658);
#213=VERTEX_POINT('',#662);
#214=VERTEX_POINT('',#664);
#215=VERTEX_POINT('',#671);
#216=VERTEX_POINT('',#674);
#217=LINE('',#568,#258);
#218=LINE('',#571,#259);
#219=LINE('',#573,#260);
#220=LINE('',#575,#261);
#221=LINE('',#577,#262);
#222=LINE('',#579,#263);
#223=LINE('',#581,#264);
#224=LINE('',#583,#265);
#225=LINE('',#585,#266);
#226=LINE('',#587,#267);
#227=LINE('',#589,#268);
#228=LINE('',#590,#269);
#229=LINE('',#595,#270);
#230=LINE('',#600,#271);
#231=LINE('',#602,#272);
#232=LINE('',#604,#273);
#233=LINE('',#606,#274);
#234=LINE('',#608,#275);
#235=LINE('',#617,#276);
#236=LINE('',#620,#277);
#237=LINE('',#622,#278);
#238=LINE('',#624,#279);
#239=LINE('',#626,#280);
#240=LINE('',#628,#281);
#241=LINE('',#629,#282);
#242=LINE('',#631,#283);
#243=LINE('',#633,#284);
#244=LINE('',#635,#285);
#245=LINE('',#636,#286);
#246=LINE('',#646,#287);
#247=LINE('',#649,#288);
#248=LINE('',#651,#289);
#249=LINE('',#653,#290);
#250=LINE('',#655,#291);
#251=LINE('',#657,#292);
#252=LINE('',#659,#293);
#253=LINE('',#661,#294);
#254=LINE('',#663,#295);
#255=LINE('',#665,#296);
#256=LINE('',#667,#297);
#257=LINE('',#668,#298);
#258=VECTOR('',#463,1.);
#259=VECTOR('',#464,1.);
#260=VECTOR('',#465,1.);
#261=VECTOR('',#466,1.);
#262=VECTOR('',#469,1.);
#263=VECTOR('',#470,1.);
#264=VECTOR('',#471,1.);
#265=VECTOR('',#474,1.);
#266=VECTOR('',#475,1.);
#267=VECTOR('',#476,1.);
#268=VECTOR('',#479,1.);
#269=VECTOR('',#480,1.);
#270=VECTOR('',#489,1.);
#271=VECTOR('',#492,1.);
#272=VECTOR('',#493,1.);
#273=VECTOR('',#494,1.);
#274=VECTOR('',#495,1.);
#275=VECTOR('',#496,1.);
#276=VECTOR('',#507,1.);
#277=VECTOR('',#508,1.);
#278=VECTOR('',#509,1.);
#279=VECTOR('',#510,1.);
#280=VECTOR('',#513,1.);
#281=VECTOR('',#514,1.);
#282=VECTOR('',#515,1.);
#283=VECTOR('',#518,1.);
#284=VECTOR('',#519,1.);
#285=VECTOR('',#522,1.);
#286=VECTOR('',#523,1.);
#287=VECTOR('',#538,1.);
#288=VECTOR('',#539,1.);
#289=VECTOR('',#540,1.);
#290=VECTOR('',#541,1.);
#291=VECTOR('',#544,1.);
#292=VECTOR('',#545,1.);
#293=VECTOR('',#546,1.);
#294=VECTOR('',#549,1.);
#295=VECTOR('',#550,1.);
#296=VECTOR('',#551,1.);
#297=VECTOR('',#554,1.);
#298=VECTOR('',#555,1.);
#299=EDGE_LOOP('',(#28,#29,#30,#31));
#300=EDGE_LOOP('',(#32,#33,#34,#35));
#301=EDGE_LOOP('',(#36,#37,#38,#39));
#302=EDGE_LOOP('',(#40,#41,#42,#43));
#303=EDGE_LOOP('',(#44,#45,#46,#47));
#304=EDGE_LOOP('',(#48,#49,#50,#51));
#305=EDGE_LOOP('',(#52,#53,#54,#55,#56,#57,#58,#59));
#306=EDGE_LOOP('',(#60));
#307=EDGE_LOOP('',(#61));
#308=EDGE_LOOP('',(#62,#63,#64,#65));
#309=EDGE_LOOP('',(#66,#67,#68,#69,#70));
#310=EDGE_LOOP('',(#71,#72,#73,#74));
#311=EDGE_LOOP('',(#75,#76,#77,#78,#79));
#312=EDGE_LOOP('',(#80));
#313=EDGE_LOOP('',(#81,#82));
#314=EDGE_LOOP('',(#83));
#315=EDGE_LOOP('',(#84,#85));
#316=EDGE_LOOP('',(#86,#87,#88,#89));
#317=EDGE_LOOP('',(#90,#91,#92,#93));
#318=EDGE_LOOP('',(#94,#95,#96,#97));
#319=EDGE_LOOP('',(#98,#99,#100,#101));
#320=EDGE_LOOP('',(#102,#103,#104,#105));
#321=EDGE_LOOP('',(#106,#107,#108,#109,#110,#111,#112,#113));
#322=EDGE_LOOP('',(#114));
#323=EDGE_LOOP('',(#115));
#324=EDGE_LOOP('',(#116));
#325=EDGE_LOOP('',(#117));
#326=EDGE_LOOP('',(#118,#119,#120,#121));
#327=EDGE_LOOP('',(#122));
#328=EDGE_LOOP('',(#123));
#329=EDGE_LOOP('',(#124));
#330=EDGE_LOOP('',(#125));
#331=EDGE_LOOP('',(#126,#127,#128,#129));
#332=FACE_BOUND('',#299,.T.);
#333=FACE_BOUND('',#300,.T.);
#334=FACE_BOUND('',#301,.T.);
#335=FACE_BOUND('',#302,.T.);
#336=FACE_BOUND('',#303,.T.);
#337=FACE_BOUND('',#304,.T.);
#338=FACE_BOUND('',#305,.T.);
#339=FACE_BOUND('',#306,.T.);
#340=FACE_BOUND('',#307,.T.);
#341=FACE_BOUND('',#308,.T.);
#342=FACE_BOUND('',#309,.T.);
#343=FACE_BOUND('',#310,.T.);
#344=FACE_BOUND('',#311,.T.);
#345=FACE_BOUND('',#312,.T.);
#346=FACE_BOUND('',#313,.T.);
#347=FACE_BOUND('',#314,.T.);
#348=FACE_BOUND('',#315,.T.);
#349=FACE_BOUND('',#316,.T.);
#350=FACE_BOUND('',#317,.T.);
#351=FACE_BOUND('',#318,.T.);
#352=FACE_BOUND('',#319,.T.);
#353=FACE_BOUND('',#320,.T.);
#354=FACE_BOUND('',#321,.T.);
#355=FACE_BOUND('',#322,.T.);
#356=FACE_BOUND('',#323,.T.);
#357=FACE_BOUND('',#324,.T.);
#358=FACE_BOUND('',#325,.T.);
#359=FACE_BOUND('',#326,.T.);
#360=FACE_BOUND('',#327,.T.);
#361=FACE_BOUND('',#328,.T.);
#362=FACE_BOUND('',#329,.T.);
#363=FACE_BOUND('',#330,.T.);
#364=FACE_BOUND('',#331,.T.);
#365=PLANE('',#427);
#366=PLANE('',#428);
#367=PLANE('',#429);
#368=PLANE('',#430);
#369=PLANE('',#431);
#370=PLANE('',#432);
#371=PLANE('',#434);
#372=PLANE('',#440);
#373=PLANE('',#441);
#374=PLANE('',#442);
#375=PLANE('',#443);
#376=PLANE('',#450);
#377=PLANE('',#451);
#378=PLANE('',#452);
#379=PLANE('',#453);
#380=PLANE('',#454);
#381=PLANE('',#458);
#382=ADVANCED_FACE('',(#332),#365,.F.);
#383=ADVANCED_FACE('',(#333),#366,.F.);
#384=ADVANCED_FACE('',(#334),#367,.F.);
#385=ADVANCED_FACE('',(#335),#368,.F.);
#386=ADVANCED_FACE('',(#336),#369,.T.);
#387=ADVANCED_FACE('',(#337),#370,.F.);
#388=ADVANCED_FACE('Face appearance 18',(#338),#371,.F.);
#389=ADVANCED_FACE('',(#339,#340),#14,.F.);
#390=ADVANCED_FACE('Face appearance 18',(#341),#372,.T.);
#391=ADVANCED_FACE('Face appearance 18',(#342),#373,.T.);
#392=ADVANCED_FACE('Face appearance 18',(#343),#374,.T.);
#393=ADVANCED_FACE('Face appearance 18',(#344),#375,.T.);
#394=ADVANCED_FACE('',(#345,#346),#15,.F.);
#395=ADVANCED_FACE('',(#347,#348),#16,.F.);
#396=ADVANCED_FACE('Face appearance 18',(#349),#376,.F.);
#397=ADVANCED_FACE('Face appearance 18',(#350),#377,.F.);
#398=ADVANCED_FACE('Face appearance 18',(#351),#378,.F.);
#399=ADVANCED_FACE('Face appearance 18',(#352),#379,.F.);
#400=ADVANCED_FACE('',(#353,#354,#355,#356),#380,.F.);
#401=ADVANCED_FACE('',(#357,#358),#17,.F.);
#402=ADVANCED_FACE('',(#359,#360,#361,#362,#363,#364),#381,.F.);
#403=CLOSED_SHELL('',(#382,#383,#384,#385,#386,#387));
#404=CLOSED_SHELL('',(#388,#389,#390,#391,#392,#393,#394,#395,#396,#397,
#398,#399,#400,#401,#402));
#405=STYLED_ITEM('',(#407),#420);
#406=STYLED_ITEM('',(#408),#421);
#407=PRESENTATION_STYLE_ASSIGNMENT((#409));
#408=PRESENTATION_STYLE_ASSIGNMENT((#410));
#409=SURFACE_STYLE_USAGE(.BOTH.,#411);
#410=SURFACE_STYLE_USAGE(.BOTH.,#412);
#411=SURFACE_SIDE_STYLE('',(#413));
#412=SURFACE_SIDE_STYLE('',(#414));
#413=SURFACE_STYLE_FILL_AREA(#415);
#414=SURFACE_STYLE_FILL_AREA(#416);
#415=FILL_AREA_STYLE('',(#417));
#416=FILL_AREA_STYLE('',(#418));
#417=FILL_AREA_STYLE_COLOUR('',#419);
#418=FILL_AREA_STYLE_COLOUR('',#419);
#419=DRAUGHTING_PRE_DEFINED_COLOUR('black');
#420=MANIFOLD_SOLID_BREP('Part 602',#403);
#421=MANIFOLD_SOLID_BREP('Part 605',#404);
#422=SHAPE_DEFINITION_REPRESENTATION(#688,#424);
#423=SHAPE_DEFINITION_REPRESENTATION(#689,#425);
#424=SHAPE_REPRESENTATION('Part 602',(#426),#678);
#425=SHAPE_REPRESENTATION('Part 605',(#433),#679);
#426=AXIS2_PLACEMENT_3D('',#566,#459,#460);
#427=AXIS2_PLACEMENT_3D('',#567,#461,#462);
#428=AXIS2_PLACEMENT_3D('',#576,#467,#468);
#429=AXIS2_PLACEMENT_3D('',#582,#472,#473);
#430=AXIS2_PLACEMENT_3D('',#588,#477,#478);
#431=AXIS2_PLACEMENT_3D('',#591,#481,#482);
#432=AXIS2_PLACEMENT_3D('',#592,#483,#484);
#433=AXIS2_PLACEMENT_3D('',#593,#485,#486);
#434=AXIS2_PLACEMENT_3D('',#594,#487,#488);
#435=AXIS2_PLACEMENT_3D('',#598,#490,#491);
#436=AXIS2_PLACEMENT_3D('',#610,#497,#498);
#437=AXIS2_PLACEMENT_3D('',#611,#499,#500);
#438=AXIS2_PLACEMENT_3D('',#612,#501,#502);
#439=AXIS2_PLACEMENT_3D('',#614,#503,#504);
#440=AXIS2_PLACEMENT_3D('',#616,#505,#506);
#441=AXIS2_PLACEMENT_3D('',#625,#511,#512);
#442=AXIS2_PLACEMENT_3D('',#630,#516,#517);
#443=AXIS2_PLACEMENT_3D('',#634,#520,#521);
#444=AXIS2_PLACEMENT_3D('',#637,#524,#525);
#445=AXIS2_PLACEMENT_3D('',#638,#526,#527);
#446=AXIS2_PLACEMENT_3D('',#640,#528,#529);
#447=AXIS2_PLACEMENT_3D('',#641,#530,#531);
#448=AXIS2_PLACEMENT_3D('',#642,#532,#533);
#449=AXIS2_PLACEMENT_3D('',#644,#534,#535);
#450=AXIS2_PLACEMENT_3D('',#645,#536,#537);
#451=AXIS2_PLACEMENT_3D('',#654,#542,#543);
#452=AXIS2_PLACEMENT_3D('',#660,#547,#548);
#453=AXIS2_PLACEMENT_3D('',#666,#552,#553);
#454=AXIS2_PLACEMENT_3D('',#669,#556,#557);
#455=AXIS2_PLACEMENT_3D('',#670,#558,#559);
#456=AXIS2_PLACEMENT_3D('',#672,#560,#561);
#457=AXIS2_PLACEMENT_3D('',#673,#562,#563);
#458=AXIS2_PLACEMENT_3D('',#675,#564,#565);
#459=DIRECTION('',(0.,0.,1.));
#460=DIRECTION('',(1.,0.,0.));
#461=DIRECTION('',(-1.,0.,0.));
#462=DIRECTION('',(0.,0.,1.));
#463=DIRECTION('',(0.,0.,1.));
#464=DIRECTION('',(0.,0.999855473420435,-0.0170009491263948));
#465=DIRECTION('',(0.,0.,1.));
#466=DIRECTION('',(0.,-1.,0.));
#467=DIRECTION('',(0.,-1.,0.));
#468=DIRECTION('',(0.,0.,-1.));
#469=DIRECTION('',(-1.,0.,0.));
#470=DIRECTION('',(0.,0.,1.));
#471=DIRECTION('',(1.,0.,0.));
#472=DIRECTION('',(1.,0.,0.));
#473=DIRECTION('',(0.,0.,-1.));
#474=DIRECTION('',(0.,-0.999855473420435,0.0170009491263948));
#475=DIRECTION('',(0.,0.,1.));
#476=DIRECTION('',(0.,1.,0.));
#477=DIRECTION('',(0.,1.,0.));
#478=DIRECTION('',(0.,0.,1.));
#479=DIRECTION('',(1.,0.,0.));
#480=DIRECTION('',(-1.,0.,0.));
#481=DIRECTION('',(0.,0.,1.));
#482=DIRECTION('',(1.,0.,0.));
#483=DIRECTION('',(0.,0.0170009491263948,0.999855473420435));
#484=DIRECTION('',(0.,-0.999855473420435,0.0170009491263948));
#485=DIRECTION('',(0.,0.,1.));
#486=DIRECTION('',(1.,0.,0.));
#487=DIRECTION('',(0.,0.,1.));
#488=DIRECTION('',(1.,0.,0.));
#489=DIRECTION('',(-1.,0.,0.));
#490=DIRECTION('',(0.,0.,1.));
#491=DIRECTION('',(1.,0.,0.));
#492=DIRECTION('',(-1.,0.,0.));
#493=DIRECTION('',(0.,1.,0.));
#494=DIRECTION('',(1.,0.,0.));
#495=DIRECTION('',(0.,-1.,0.));
#496=DIRECTION('',(-1.,0.,0.));
#497=DIRECTION('',(0.,0.,1.));
#498=DIRECTION('',(1.,0.,0.));
#499=DIRECTION('',(0.,0.,-1.));
#500=DIRECTION('',(-1.,0.,0.));
#501=DIRECTION('',(0.,0.,-1.));
#502=DIRECTION('',(-1.,0.,0.));
#503=DIRECTION('',(0.,0.0170009491263948,0.999855473420435));
#504=DIRECTION('',(0.,0.999855473420435,-0.0170009491263948));
#505=DIRECTION('',(0.,-1.,0.));
#506=DIRECTION('',(0.,0.,-1.));
#507=DIRECTION('',(1.,0.,0.));
#508=DIRECTION('',(0.,0.,-1.));
#509=DIRECTION('',(-1.,0.,0.));
#510=DIRECTION('',(0.,0.,-1.));
#511=DIRECTION('',(-1.,0.,0.));
#512=DIRECTION('',(0.,0.,1.));
#513=DIRECTION('',(0.,-1.,0.));
#514=DIRECTION('',(0.,0.,-1.));
#515=DIRECTION('',(0.,0.999855473420435,-0.0170009491263948));
#516=DIRECTION('',(0.,1.,0.));
#517=DIRECTION('',(0.,0.,1.));
#518=DIRECTION('',(-1.,0.,0.));
#519=DIRECTION('',(0.,0.,-1.));
#520=DIRECTION('',(1.,0.,0.));
#521=DIRECTION('',(0.,0.,-1.));
#522=DIRECTION('',(0.,1.,0.));
#523=DIRECTION('',(0.,-0.999855473420435,0.0170009491263948));
#524=DIRECTION('',(0.,0.,-1.));
#525=DIRECTION('',(-1.,0.,0.));
#526=DIRECTION('',(0.,0.,-1.));
#527=DIRECTION('',(-1.,0.,0.));
#528=DIRECTION('',(0.,0.0170009491263948,0.999855473420435));
#529=DIRECTION('',(0.,0.999855473420435,-0.0170009491263948));
#530=DIRECTION('',(0.,0.,-1.));
#531=DIRECTION('',(-1.,0.,0.));
#532=DIRECTION('',(0.,0.,-1.));
#533=DIRECTION('',(-1.,0.,0.));
#534=DIRECTION('',(0.,0.0170009491263948,0.999855473420435));
#535=DIRECTION('',(0.,0.999855473420435,-0.0170009491263948));
#536=DIRECTION('',(-1.,0.,0.));
#537=DIRECTION('',(0.,0.,1.));
#538=DIRECTION('',(0.,0.,-1.));
#539=DIRECTION('',(0.,-1.,0.));
#540=DIRECTION('',(0.,0.,-1.));
#541=DIRECTION('',(0.,0.999855473420435,-0.0170009491263948));
#542=DIRECTION('',(0.,-1.,0.));
#543=DIRECTION('',(0.,0.,-1.));
#544=DIRECTION('',(1.,0.,0.));
#545=DIRECTION('',(0.,0.,-1.));
#546=DIRECTION('',(-1.,0.,0.));
#547=DIRECTION('',(1.,0.,0.));
#548=DIRECTION('',(0.,0.,-1.));
#549=DIRECTION('',(0.,1.,0.));
#550=DIRECTION('',(0.,0.,-1.));
#551=DIRECTION('',(0.,-0.999855473420435,0.0170009491263948));
#552=DIRECTION('',(0.,1.,0.));
#553=DIRECTION('',(0.,0.,1.));
#554=DIRECTION('',(-1.,0.,0.));
#555=DIRECTION('',(1.,0.,0.));
#556=DIRECTION('',(0.,0.0170009491263948,0.999855473420435));
#557=DIRECTION('',(0.,-0.999855473420435,0.0170009491263948));
#558=DIRECTION('',(0.,0.0170009491263948,0.999855473420435));
#559=DIRECTION('',(0.,0.999855473420435,-0.0170009491263948));
#560=DIRECTION('',(0.,0.,-1.));
#561=DIRECTION('',(-1.,0.,0.));
#562=DIRECTION('',(0.,0.,-1.));
#563=DIRECTION('',(-1.,0.,0.));
#564=DIRECTION('',(0.,0.,-1.));
#565=DIRECTION('',(1.,0.,0.));
#566=CARTESIAN_POINT('',(0.,0.,0.));
#567=CARTESIAN_POINT('',(0.6133,-0.35665,-0.012));
#568=CARTESIAN_POINT('',(0.6133,-0.44,-0.012));
#569=CARTESIAN_POINT('',(0.6133,-0.44,-0.00909439545010872));
#570=CARTESIAN_POINT('',(0.6133,-0.44,-0.005));
#571=CARTESIAN_POINT('',(0.6133,-0.356624699943999,-0.0105120595749056));
#572=CARTESIAN_POINT('',(0.6133,-0.2733,-0.0119288633254256));
#573=CARTESIAN_POINT('',(0.6133,-0.2733,-0.012));
#574=CARTESIAN_POINT('',(0.6133,-0.2733,-0.005));
#575=CARTESIAN_POINT('',(0.6133,-0.35665,-0.005));
#576=CARTESIAN_POINT('',(0.42985,-0.2733,-0.012));
#577=CARTESIAN_POINT('',(0.42985,-0.2733,-0.0119288633254256));
#578=CARTESIAN_POINT('',(0.2464,-0.2733,-0.0119288633254256));
#579=CARTESIAN_POINT('',(0.2464,-0.2733,-0.012));
#580=CARTESIAN_POINT('',(0.2464,-0.2733,-0.005));
#581=CARTESIAN_POINT('',(0.42985,-0.2733,-0.005));
#582=CARTESIAN_POINT('',(0.2464,-0.35665,-0.012));
#583=CARTESIAN_POINT('',(0.2464,-0.356624699943999,-0.0105120595749056));
#584=CARTESIAN_POINT('',(0.2464,-0.44,-0.00909439545010872));
#585=CARTESIAN_POINT('',(0.2464,-0.44,-0.012));
#586=CARTESIAN_POINT('',(0.2464,-0.44,-0.005));
#587=CARTESIAN_POINT('',(0.2464,-0.35665,-0.005));
#588=CARTESIAN_POINT('',(0.42985,-0.44,-0.012));
#589=CARTESIAN_POINT('',(0.42985,-0.44,-0.00909439545010872));
#590=CARTESIAN_POINT('',(0.42985,-0.44,-0.005));
#591=CARTESIAN_POINT('',(0.42985,-0.35665,-0.005));
#592=CARTESIAN_POINT('',(0.69,-0.357643546814105,-0.01049473570734));
#593=CARTESIAN_POINT('',(0.,0.,0.));
#594=CARTESIAN_POINT('',(0.42985,-0.35665,-0.012));
#595=CARTESIAN_POINT('',(0.42985,-0.269116328082314,-0.012));
#596=CARTESIAN_POINT('',(0.586445399265422,-0.269116328082314,-0.012));
#597=CARTESIAN_POINT('',(0.273496999996119,-0.269116328082314,-0.012));
#598=CARTESIAN_POINT('',(0.272301286458969,-0.269562050700188,-0.012));
#599=CARTESIAN_POINT('',(0.271105572921819,-0.269116328082314,-0.012));
#600=CARTESIAN_POINT('',(0.42985,-0.269116328082314,-0.012));
#601=CARTESIAN_POINT('',(0.2394,-0.269116328082314,-0.012));
#602=CARTESIAN_POINT('',(0.2394,-0.35665,-0.012));
#603=CARTESIAN_POINT('',(0.2394,-0.2663,-0.012));
#604=CARTESIAN_POINT('',(0.42985,-0.2663,-0.012));
#605=CARTESIAN_POINT('',(0.6203,-0.2663,-0.012));
#606=CARTESIAN_POINT('',(0.6203,-0.35665,-0.012));
#607=CARTESIAN_POINT('',(0.6203,-0.269116328082314,-0.012));
#608=CARTESIAN_POINT('',(0.42985,-0.269116328082314,-0.012));
#609=CARTESIAN_POINT('',(0.588807753581868,-0.269116328082314,-0.012));
#610=CARTESIAN_POINT('',(0.587626576423645,-0.269698649644852,-0.012));
#611=CARTESIAN_POINT('',(0.2727010846138,-0.443497821688652,0.004));
#612=CARTESIAN_POINT('',(0.2727010846138,-0.443497821688652,-0.000256522558629513));
#613=CARTESIAN_POINT('',(0.271396364908636,-0.443497821688652,-0.000256522558629513));
#614=CARTESIAN_POINT('',(0.2727010846138,-0.443497821688652,-0.00903492056582515));
#615=CARTESIAN_POINT('',(0.2727010846138,-0.442193101983488,-0.00905710524543271));
#616=CARTESIAN_POINT('',(0.42985,-0.447,0.012));
#617=CARTESIAN_POINT('',(0.42985,-0.447,-0.000256522558629513));
#618=CARTESIAN_POINT('',(0.2394,-0.447,-0.000256522558629513));
#619=CARTESIAN_POINT('',(0.6203,-0.447,-0.000256522558629513));
#620=CARTESIAN_POINT('',(0.2394,-0.447,0.012));
#621=CARTESIAN_POINT('',(0.2394,-0.447,-0.00897537160411461));
#622=CARTESIAN_POINT('',(0.42985,-0.447,-0.0089753716041146));
#623=CARTESIAN_POINT('',(0.6203,-0.447,-0.00897537160411461));
#624=CARTESIAN_POINT('',(0.6203,-0.447,0.012));
#625=CARTESIAN_POINT('',(0.2394,-0.35665,0.012));
#626=CARTESIAN_POINT('',(0.2394,-0.35665,-0.000256522558629513));
#627=CARTESIAN_POINT('',(0.2394,-0.2663,-0.000256522558629513));
#628=CARTESIAN_POINT('',(0.2394,-0.2663,0.012));
#629=CARTESIAN_POINT('',(0.2394,-0.357032663752896,-0.0105051228003969));
#630=CARTESIAN_POINT('',(0.42985,-0.2663,0.012));
#631=CARTESIAN_POINT('',(0.42985,-0.2663,-0.000256522558629513));
#632=CARTESIAN_POINT('',(0.6203,-0.2663,-0.000256522558629513));
#633=CARTESIAN_POINT('',(0.6203,-0.2663,0.012));
#634=CARTESIAN_POINT('',(0.6203,-0.35665,0.012));
#635=CARTESIAN_POINT('',(0.6203,-0.35665,-0.000256522558629513));
#636=CARTESIAN_POINT('',(0.6203,-0.357032663752896,-0.0105051228003969));
#637=CARTESIAN_POINT('',(0.587626576423645,-0.269698649644852,0.004));
#638=CARTESIAN_POINT('',(0.587626576423645,-0.269698649644852,-0.000256522558629513));
#639=CARTESIAN_POINT('',(0.586309656577449,-0.269698649644852,-0.000256522558629513));
#640=CARTESIAN_POINT('',(0.587626576423645,-0.269698649644852,-0.0119900985497173));
#641=CARTESIAN_POINT('',(0.272301286458969,-0.269562050700188,0.004));
#642=CARTESIAN_POINT('',(0.272301286458969,-0.269562050700188,-0.000256522558629513));
#643=CARTESIAN_POINT('',(0.271025198877724,-0.269562050700188,-0.000256522558629513));
#644=CARTESIAN_POINT('',(0.272301286458969,-0.269562050700188,-0.0119924211971106));
#645=CARTESIAN_POINT('',(0.2464,-0.35665,0.012));
#646=CARTESIAN_POINT('',(0.2464,-0.2733,0.012));
#647=CARTESIAN_POINT('',(0.2464,-0.2733,-0.000256522558629513));
#648=CARTESIAN_POINT('',(0.2464,-0.2733,-0.0119288633254256));
#649=CARTESIAN_POINT('',(0.2464,-0.35665,-0.000256522558629513));
#650=CARTESIAN_POINT('',(0.2464,-0.44,-0.000256522558629513));
#651=CARTESIAN_POINT('',(0.2464,-0.44,0.012));
#652=CARTESIAN_POINT('',(0.2464,-0.44,-0.00909439545010872));
#653=CARTESIAN_POINT('',(0.2464,-0.357032663752896,-0.0105051228003969));
#654=CARTESIAN_POINT('',(0.42985,-0.44,0.012));
#655=CARTESIAN_POINT('',(0.42985,-0.44,-0.000256522558629513));
#656=CARTESIAN_POINT('',(0.6133,-0.44,-0.000256522558629513));
#657=CARTESIAN_POINT('',(0.6133,-0.44,0.012));
#658=CARTESIAN_POINT('',(0.6133,-0.44,-0.00909439545010871));
#659=CARTESIAN_POINT('',(0.42985,-0.44,-0.00909439545010871));
#660=CARTESIAN_POINT('',(0.6133,-0.35665,0.012));
#661=CARTESIAN_POINT('',(0.6133,-0.35665,-0.000256522558629513));
#662=CARTESIAN_POINT('',(0.6133,-0.2733,-0.000256522558629513));
#663=CARTESIAN_POINT('',(0.6133,-0.2733,0.012));
#664=CARTESIAN_POINT('',(0.6133,-0.2733,-0.0119288633254256));
#665=CARTESIAN_POINT('',(0.6133,-0.357032663752896,-0.0105051228003969));
#666=CARTESIAN_POINT('',(0.42985,-0.2733,0.012));
#667=CARTESIAN_POINT('',(0.42985,-0.2733,-0.000256522558629513));
#668=CARTESIAN_POINT('',(0.42985,-0.2733,-0.0119288633254256));
#669=CARTESIAN_POINT('',(0.69,-0.357643546814105,-0.01049473570734));
#670=CARTESIAN_POINT('',(0.587638854980469,-0.44353049993515,-0.00903436492431393));
#671=CARTESIAN_POINT('',(0.587638854980469,-0.442221110995983,-0.00905662899680561));
#672=CARTESIAN_POINT('',(0.587638854980469,-0.44353049993515,0.004));
#673=CARTESIAN_POINT('',(0.587638854980469,-0.44353049993515,-0.000256522558629513));
#674=CARTESIAN_POINT('',(0.586329466041302,-0.44353049993515,-0.000256522558629513));
#675=CARTESIAN_POINT('',(0.,-0.354626774787903,-0.000256522558629513));
#676=MECHANICAL_DESIGN_GEOMETRIC_PRESENTATION_REPRESENTATION('',(#405),
#678);
#677=MECHANICAL_DESIGN_GEOMETRIC_PRESENTATION_REPRESENTATION('',(#406),
#679);
#678=(
GEOMETRIC_REPRESENTATION_CONTEXT(3)
GLOBAL_UNCERTAINTY_ASSIGNED_CONTEXT((#680))
GLOBAL_UNIT_ASSIGNED_CONTEXT((#686,#684,#682))
REPRESENTATION_CONTEXT('Part 602','TOP_LEVEL_ASSEMBLY_PART')
);
#679=(
GEOMETRIC_REPRESENTATION_CONTEXT(3)
GLOBAL_UNCERTAINTY_ASSIGNED_CONTEXT((#681))
GLOBAL_UNIT_ASSIGNED_CONTEXT((#687,#685,#683))
REPRESENTATION_CONTEXT('Part 605','TOP_LEVEL_ASSEMBLY_PART')
);
#680=UNCERTAINTY_MEASURE_WITH_UNIT(LENGTH_MEASURE(1.E-8),#686,
'DISTANCE_ACCURACY_VALUE','Maximum Tolerance applied to model');
#681=UNCERTAINTY_MEASURE_WITH_UNIT(LENGTH_MEASURE(1.E-8),#687,
'DISTANCE_ACCURACY_VALUE','Maximum Tolerance applied to model');
#682=(
NAMED_UNIT(*)
SI_UNIT($,.STERADIAN.)
SOLID_ANGLE_UNIT()
);
#683=(
NAMED_UNIT(*)
SI_UNIT($,.STERADIAN.)
SOLID_ANGLE_UNIT()
);
#684=(
NAMED_UNIT(*)
PLANE_ANGLE_UNIT()
SI_UNIT($,.RADIAN.)
);
#685=(
NAMED_UNIT(*)
PLANE_ANGLE_UNIT()
SI_UNIT($,.RADIAN.)
);
#686=(
LENGTH_UNIT()
NAMED_UNIT(*)
SI_UNIT($,.METRE.)
);
#687=(
LENGTH_UNIT()
NAMED_UNIT(*)
SI_UNIT($,.METRE.)
);
#688=PRODUCT_DEFINITION_SHAPE('','',#690);
#689=PRODUCT_DEFINITION_SHAPE('','',#691);
#690=PRODUCT_DEFINITION('','',#694,#692);
#691=PRODUCT_DEFINITION('','',#695,#693);
#692=PRODUCT_DEFINITION_CONTEXT('',#706,'design');
#693=PRODUCT_DEFINITION_CONTEXT('',#707,'design');
#694=PRODUCT_DEFINITION_FORMATION_WITH_SPECIFIED_SOURCE('','',#698,
 .NOT_KNOWN.);
#695=PRODUCT_DEFINITION_FORMATION_WITH_SPECIFIED_SOURCE('','',#699,
 .NOT_KNOWN.);
#696=PRODUCT_RELATED_PRODUCT_CATEGORY('','',(#698));
#697=PRODUCT_RELATED_PRODUCT_CATEGORY('','',(#699));
#698=PRODUCT('Part 602','Part 602','Part 602',(#702));
#699=PRODUCT('Part 605','Part 605','Part 605',(#703));
#700=PRODUCT_CATEGORY('','');
#701=PRODUCT_CATEGORY('','');
#702=PRODUCT_CONTEXT('',#706,'mechanical');
#703=PRODUCT_CONTEXT('',#707,'mechanical');
#704=APPLICATION_PROTOCOL_DEFINITION('international standard',
'ap242_managed_model_based_3d_engineering',2020,#706);
#705=APPLICATION_PROTOCOL_DEFINITION('international standard',
'ap242_managed_model_based_3d_engineering',2020,#707);
#706=APPLICATION_CONTEXT('managed model based 3d engineering');
#707=APPLICATION_CONTEXT('managed model based 3d engineering');
ENDSEC;
END-ISO-10303-21;
